<svg xmlns="http://www.w3.org/2000/svg" viewBox="0 0 400 400" fill="none" stroke="#E2A739" stroke-linecap="round" stroke-linejoin="round"><g stroke="#E2A739"><circle cx="393.00" cy="200.00" r="1.5" fill="#E2A739" stroke="none"></circle><circle cx="392.27" cy="216.82" r="1.5" fill="#E2A739" stroke="none"></circle><circle cx="390.07" cy="233.51" r="1.5" fill="#E2A739" stroke="none"></circle><circle cx="386.42" cy="249.95" r="1.5" fill="#E2A739" stroke="none"></circle><circle cx="381.36" cy="266.01" r="1.5" fill="#E2A739" stroke="none"></circle><circle cx="374.92" cy="281.57" r="1.5" fill="#E2A739" stroke="none"></circle><circle cx="367.14" cy="296.50" r="1.5" fill="#E2A739" stroke="none"></circle><circle cx="358.10" cy="310.70" r="1.5" fill="#E2A739" stroke="none"></circle><circle cx="347.85" cy="324.06" r="1.5" fill="#E2A739" stroke="none"></circle><circle cx="336.47" cy="336.47" r="1.5" fill="#E2A739" stroke="none"></circle><circle cx="324.06" cy="347.85" r="1.5" fill="#E2A739" stroke="none"></circle><circle cx="310.70" cy="358.10" r="1.5" fill="#E2A739" stroke="none"></circle><circle cx="296.50" cy="367.14" r="1.5" fill="#E2A739" stroke="none"></circle><circle cx="281.57" cy="374.92" r="1.5" fill="#E2A739" stroke="none"></circle><circle cx="266.01" cy="381.36" r="1.5" fill="#E2A739" stroke="none"></circle><circle cx="249.95" cy="386.42" r="1.5" fill="#E2A739" stroke="none"></circle><circle cx="233.51" cy="390.07" r="1.5" fill="#E2A739" stroke="none"></circle><circle cx="216.82" cy="392.27" r="1.5" fill="#E2A739" stroke="none"></circle><circle cx="200.00" cy="393.00" r="1.5" fill="#E2A739" stroke="none"></circle><circle cx="183.18" cy="392.27" r="1.5" fill="#E2A739" stroke="none"></circle><circle cx="166.49" cy="390.07" r="1.5" fill="#E2A739" stroke="none"></circle><circle cx="150.05" cy="386.42" r="1.5" fill="#E2A739" stroke="none"></circle><circle cx="133.99" cy="381.36" r="1.5" fill="#E2A739" stroke="none"></circle><circle cx="118.43" cy="374.92" r="1.5" fill="#E2A739" stroke="none"></circle><circle cx="103.50" cy="367.14" r="1.5" fill="#E2A739" stroke="none"></circle><circle cx="89.30" cy="358.10" r="1.5" fill="#E2A739" stroke="none"></circle><circle cx="75.94" cy="347.85" r="1.5" fill="#E2A739" stroke="none"></circle><circle cx="63.53" cy="336.47" r="1.5" fill="#E2A739" stroke="none"></circle><circle cx="52.15" cy="324.06" r="1.5" fill="#E2A739" stroke="none"></circle><circle cx="41.90" cy="310.70" r="1.5" fill="#E2A739" stroke="none"></circle><circle cx="32.86" cy="296.50" r="1.5" fill="#E2A739" stroke="none"></circle><circle cx="25.08" cy="281.57" r="1.5" fill="#E2A739" stroke="none"></circle><circle cx="18.64" cy="266.01" r="1.5" fill="#E2A739" stroke="none"></circle><circle cx="13.58" cy="249.95" r="1.5" fill="#E2A739" stroke="none"></circle><circle cx="9.93" cy="233.51" r="1.5" fill="#E2A739" stroke="none"></circle><circle cx="7.73" cy="216.82" r="1.5" fill="#E2A739" stroke="none"></circle><circle cx="7.00" cy="200.00" r="1.5" fill="#E2A739" stroke="none"></circle><circle cx="7.73" cy="183.18" r="1.5" fill="#E2A739" stroke="none"></circle><circle cx="9.93" cy="166.49" r="1.5" fill="#E2A739" stroke="none"></circle><circle cx="13.58" cy="150.05" r="1.5" fill="#E2A739" stroke="none"></circle><circle cx="18.64" cy="133.99" r="1.5" fill="#E2A739" stroke="none"></circle><circle cx="25.08" cy="118.43" r="1.5" fill="#E2A739" stroke="none"></circle><circle cx="32.86" cy="103.50" r="1.5" fill="#E2A739" stroke="none"></circle><circle cx="41.90" cy="89.30" r="1.5" fill="#E2A739" stroke="none"></circle><circle cx="52.15" cy="75.94" r="1.5" fill="#E2A739" stroke="none"></circle><circle cx="63.53" cy="63.53" r="1.5" fill="#E2A739" stroke="none"></circle><circle cx="75.94" cy="52.15" r="1.5" fill="#E2A739" stroke="none"></circle><circle cx="89.30" cy="41.90" r="1.5" fill="#E2A739" stroke="none"></circle><circle cx="103.50" cy="32.86" r="1.5" fill="#E2A739" stroke="none"></circle><circle cx="118.43" cy="25.08" r="1.5" fill="#E2A739" stroke="none"></circle><circle cx="133.99" cy="18.64" r="1.5" fill="#E2A739" stroke="none"></circle><circle cx="150.05" cy="13.58" r="1.5" fill="#E2A739" stroke="none"></circle><circle cx="166.49" cy="9.93" r="1.5" fill="#E2A739" stroke="none"></circle><circle cx="183.18" cy="7.73" r="1.5" fill="#E2A739" stroke="none"></circle><circle cx="200.00" cy="7.00" r="1.5" fill="#E2A739" stroke="none"></circle><circle cx="216.82" cy="7.73" r="1.5" fill="#E2A739" stroke="none"></circle><circle cx="233.51" cy="9.93" r="1.5" fill="#E2A739" stroke="none"></circle><circle cx="249.95" cy="13.58" r="1.5" fill="#E2A739" stroke="none"></circle><circle cx="266.01" cy="18.64" r="1.5" fill="#E2A739" stroke="none"></circle><circle cx="281.57" cy="25.08" r="1.5" fill="#E2A739" stroke="none"></circle><circle cx="296.50" cy="32.86" r="1.5" fill="#E2A739" stroke="none"></circle><circle cx="310.70" cy="41.90" r="1.5" fill="#E2A739" stroke="none"></circle><circle cx="324.06" cy="52.15" r="1.5" fill="#E2A739" stroke="none"></circle><circle cx="336.47" cy="63.53" r="1.5" fill="#E2A739" stroke="none"></circle><circle cx="347.85" cy="75.94" r="1.5" fill="#E2A739" stroke="none"></circle><circle cx="358.10" cy="89.30" r="1.5" fill="#E2A739" stroke="none"></circle><circle cx="367.14" cy="103.50" r="1.5" fill="#E2A739" stroke="none"></circle><circle cx="374.92" cy="118.43" r="1.5" fill="#E2A739" stroke="none"></circle><circle cx="381.36" cy="133.99" r="1.5" fill="#E2A739" stroke="none"></circle><circle cx="386.42" cy="150.05" r="1.5" fill="#E2A739" stroke="none"></circle><circle cx="390.07" cy="166.49" r="1.5" fill="#E2A739" stroke="none"></circle><circle cx="392.27" cy="183.18" r="1.5" fill="#E2A739" stroke="none"></circle><circle cx="200" cy="200" r="188" stroke-width="2.4"></circle><circle cx="200" cy="200" r="180" stroke-width="1"></circle><circle cx="200" cy="200" r="150" stroke-width="1"></circle><circle cx="200" cy="200" r="142" stroke-width="2.2"></circle><circle cx="365.00" cy="200.00" r="3" fill="#E2A739" stroke="none"></circle><path d="M356.65 220.62 L363.07 225.50 L370.53 222.45 L364.11 217.57 Z" stroke-width="0.9"></path><circle cx="359.38" cy="242.71" r="3" fill="#E2A739" stroke="none"></circle><path d="M345.97 260.46 L350.91 266.84 L358.91 265.82 L353.97 259.45 Z" stroke-width="0.9"></path><circle cx="342.89" cy="282.50" r="3" fill="#E2A739" stroke="none"></circle><path d="M325.35 296.18 L328.47 303.62 L336.46 304.71 L333.34 297.27 Z" stroke-width="0.9"></path><circle cx="316.67" cy="316.67" r="3" fill="#E2A739" stroke="none"></circle><path d="M296.18 325.35 L297.27 333.34 L304.71 336.46 L303.62 328.47 Z" stroke-width="0.9"></path><circle cx="282.50" cy="342.89" r="3" fill="#E2A739" stroke="none"></circle><path d="M260.46 345.97 L259.45 353.97 L265.82 358.91 L266.84 350.91 Z" stroke-width="0.9"></path><circle cx="242.71" cy="359.38" r="3" fill="#E2A739" stroke="none"></circle><path d="M220.62 356.65 L217.57 364.11 L222.45 370.53 L225.50 363.07 Z" stroke-width="0.9"></path><circle cx="200.00" cy="365.00" r="3" fill="#E2A739" stroke="none"></circle><path d="M179.38 356.65 L174.50 363.07 L177.55 370.53 L182.43 364.11 Z" stroke-width="0.9"></path><circle cx="157.29" cy="359.38" r="3" fill="#E2A739" stroke="none"></circle><path d="M139.54 345.97 L133.16 350.91 L134.18 358.91 L140.55 353.97 Z" stroke-width="0.9"></path><circle cx="117.50" cy="342.89" r="3" fill="#E2A739" stroke="none"></circle><path d="M103.82 325.35 L96.38 328.47 L95.29 336.46 L102.73 333.34 Z" stroke-width="0.9"></path><circle cx="83.33" cy="316.67" r="3" fill="#E2A739" stroke="none"></circle><path d="M74.65 296.18 L66.66 297.27 L63.54 304.71 L71.53 303.62 Z" stroke-width="0.9"></path><circle cx="57.11" cy="282.50" r="3" fill="#E2A739" stroke="none"></circle><path d="M54.03 260.46 L46.03 259.45 L41.09 265.82 L49.09 266.84 Z" stroke-width="0.9"></path><circle cx="40.62" cy="242.71" r="3" fill="#E2A739" stroke="none"></circle><path d="M43.35 220.62 L35.89 217.57 L29.47 222.45 L36.93 225.50 Z" stroke-width="0.9"></path><circle cx="35.00" cy="200.00" r="3" fill="#E2A739" stroke="none"></circle><path d="M43.35 179.38 L36.93 174.50 L29.47 177.55 L35.89 182.43 Z" stroke-width="0.9"></path><circle cx="40.62" cy="157.29" r="3" fill="#E2A739" stroke="none"></circle><path d="M54.03 139.54 L49.09 133.16 L41.09 134.18 L46.03 140.55 Z" stroke-width="0.9"></path><circle cx="57.11" cy="117.50" r="3" fill="#E2A739" stroke="none"></circle><path d="M74.65 103.82 L71.53 96.38 L63.54 95.29 L66.66 102.73 Z" stroke-width="0.9"></path><circle cx="83.33" cy="83.33" r="3" fill="#E2A739" stroke="none"></circle><path d="M103.82 74.65 L102.73 66.66 L95.29 63.54 L96.38 71.53 Z" stroke-width="0.9"></path><circle cx="117.50" cy="57.11" r="3" fill="#E2A739" stroke="none"></circle><path d="M139.54 54.03 L140.55 46.03 L134.18 41.09 L133.16 49.09 Z" stroke-width="0.9"></path><circle cx="157.29" cy="40.62" r="3" fill="#E2A739" stroke="none"></circle><path d="M179.38 43.35 L182.43 35.89 L177.55 29.47 L174.50 36.93 Z" stroke-width="0.9"></path><circle cx="200.00" cy="35.00" r="3" fill="#E2A739" stroke="none"></circle><path d="M220.62 43.35 L225.50 36.93 L222.45 29.47 L217.57 35.89 Z" stroke-width="0.9"></path><circle cx="242.71" cy="40.62" r="3" fill="#E2A739" stroke="none"></circle><path d="M260.46 54.03 L266.84 49.09 L265.82 41.09 L259.45 46.03 Z" stroke-width="0.9"></path><circle cx="282.50" cy="57.11" r="3" fill="#E2A739" stroke="none"></circle><path d="M296.18 74.65 L303.62 71.53 L304.71 63.54 L297.27 66.66 Z" stroke-width="0.9"></path><circle cx="316.67" cy="83.33" r="3" fill="#E2A739" stroke="none"></circle><path d="M325.35 103.82 L333.34 102.73 L336.46 95.29 L328.47 96.38 Z" stroke-width="0.9"></path><circle cx="342.89" cy="117.50" r="3" fill="#E2A739" stroke="none"></circle><path d="M345.97 139.54 L353.97 140.55 L358.91 134.18 L350.91 133.16 Z" stroke-width="0.9"></path><circle cx="359.38" cy="157.29" r="3" fill="#E2A739" stroke="none"></circle><path d="M356.65 179.38 L364.11 182.43 L370.53 177.55 L363.07 174.50 Z" stroke-width="0.9"></path><line x1="200.00" y1="154.00" x2="200.00" y2="60.00" stroke-width="3.2"></line><path d="M200.00 64.00 L207.00 76.00 L200.00 88.00 L193.00 76.00 Z" stroke-width="1.3"></path><circle cx="200.00" cy="105.00" r="7" stroke-width="1.1"></circle><circle cx="200.00" cy="105.00" r="2.4" fill="#E2A739" stroke="none"></circle><line x1="232.53" y1="167.47" x2="298.99" y2="101.01" stroke-width="3.2"></line><path d="M296.17 103.83 L292.63 117.27 L279.20 120.80 L282.73 107.37 Z" stroke-width="1.3"></path><circle cx="267.18" cy="132.82" r="7" stroke-width="1.1"></circle><circle cx="267.18" cy="132.82" r="2.4" fill="#E2A739" stroke="none"></circle><line x1="246.00" y1="200.00" x2="340.00" y2="200.00" stroke-width="3.2"></line><path d="M336.00 200.00 L324.00 207.00 L312.00 200.00 L324.00 193.00 Z" stroke-width="1.3"></path><circle cx="295.00" cy="200.00" r="7" stroke-width="1.1"></circle><circle cx="295.00" cy="200.00" r="2.4" fill="#E2A739" stroke="none"></circle><line x1="232.53" y1="232.53" x2="298.99" y2="298.99" stroke-width="3.2"></line><path d="M296.17 296.17 L282.73 292.63 L279.20 279.20 L292.63 282.73 Z" stroke-width="1.3"></path><circle cx="267.18" cy="267.18" r="7" stroke-width="1.1"></circle><circle cx="267.18" cy="267.18" r="2.4" fill="#E2A739" stroke="none"></circle><line x1="200.00" y1="246.00" x2="200.00" y2="340.00" stroke-width="3.2"></line><path d="M200.00 336.00 L193.00 324.00 L200.00 312.00 L207.00 324.00 Z" stroke-width="1.3"></path><circle cx="200.00" cy="295.00" r="7" stroke-width="1.1"></circle><circle cx="200.00" cy="295.00" r="2.4" fill="#E2A739" stroke="none"></circle><line x1="167.47" y1="232.53" x2="101.01" y2="298.99" stroke-width="3.2"></line><path d="M103.83 296.17 L107.37 282.73 L120.80 279.20 L117.27 292.63 Z" stroke-width="1.3"></path><circle cx="132.82" cy="267.18" r="7" stroke-width="1.1"></circle><circle cx="132.82" cy="267.18" r="2.4" fill="#E2A739" stroke="none"></circle><line x1="154.00" y1="200.00" x2="60.00" y2="200.00" stroke-width="3.2"></line><path d="M64.00 200.00 L76.00 193.00 L88.00 200.00 L76.00 207.00 Z" stroke-width="1.3"></path><circle cx="105.00" cy="200.00" r="7" stroke-width="1.1"></circle><circle cx="105.00" cy="200.00" r="2.4" fill="#E2A739" stroke="none"></circle><line x1="167.47" y1="167.47" x2="101.01" y2="101.01" stroke-width="3.2"></line><path d="M103.83 103.83 L117.27 107.37 L120.80 120.80 L107.37 117.27 Z" stroke-width="1.3"></path><circle cx="132.82" cy="132.82" r="7" stroke-width="1.1"></circle><circle cx="132.82" cy="132.82" r="2.4" fill="#E2A739" stroke="none"></circle><line x1="217.60" y1="157.50" x2="253.58" y2="70.66" stroke-width="1.1"></line><circle cx="245.92" cy="89.13" r="3.4" stroke-width="0.9"></circle><line x1="242.50" y1="182.40" x2="329.34" y2="146.42" stroke-width="1.1"></line><circle cx="310.87" cy="154.08" r="3.4" stroke-width="0.9"></circle><line x1="242.50" y1="217.60" x2="329.34" y2="253.58" stroke-width="1.1"></line><circle cx="310.87" cy="245.92" r="3.4" stroke-width="0.9"></circle><line x1="217.60" y1="242.50" x2="253.58" y2="329.34" stroke-width="1.1"></line><circle cx="245.92" cy="310.87" r="3.4" stroke-width="0.9"></circle><line x1="182.40" y1="242.50" x2="146.42" y2="329.34" stroke-width="1.1"></line><circle cx="154.08" cy="310.87" r="3.4" stroke-width="0.9"></circle><line x1="157.50" y1="217.60" x2="70.66" y2="253.58" stroke-width="1.1"></line><circle cx="89.13" cy="245.92" r="3.4" stroke-width="0.9"></circle><line x1="157.50" y1="182.40" x2="70.66" y2="146.42" stroke-width="1.1"></line><circle cx="89.13" cy="154.08" r="3.4" stroke-width="0.9"></circle><line x1="182.40" y1="157.50" x2="146.42" y2="70.66" stroke-width="1.1"></line><circle cx="154.08" cy="89.13" r="3.4" stroke-width="0.9"></circle><circle cx="244.00" cy="200.00" r="2" fill="#E2A739" stroke="none"></circle><circle cx="240.65" cy="216.84" r="2" fill="#E2A739" stroke="none"></circle><circle cx="231.11" cy="231.11" r="2" fill="#E2A739" stroke="none"></circle><circle cx="216.84" cy="240.65" r="2" fill="#E2A739" stroke="none"></circle><circle cx="200.00" cy="244.00" r="2" fill="#E2A739" stroke="none"></circle><circle cx="183.16" cy="240.65" r="2" fill="#E2A739" stroke="none"></circle><circle cx="168.89" cy="231.11" r="2" fill="#E2A739" stroke="none"></circle><circle cx="159.35" cy="216.84" r="2" fill="#E2A739" stroke="none"></circle><circle cx="156.00" cy="200.00" r="2" fill="#E2A739" stroke="none"></circle><circle cx="159.35" cy="183.16" r="2" fill="#E2A739" stroke="none"></circle><circle cx="168.89" cy="168.89" r="2" fill="#E2A739" stroke="none"></circle><circle cx="183.16" cy="159.35" r="2" fill="#E2A739" stroke="none"></circle><circle cx="200.00" cy="156.00" r="2" fill="#E2A739" stroke="none"></circle><circle cx="216.84" cy="159.35" r="2" fill="#E2A739" stroke="none"></circle><circle cx="231.11" cy="168.89" r="2" fill="#E2A739" stroke="none"></circle><circle cx="240.65" cy="183.16" r="2" fill="#E2A739" stroke="none"></circle><circle cx="200" cy="200" r="40" stroke-width="2.4"></circle><path d="M218.00 200.00 Q226.00 207.00 234.00 200.00 Q226.00 193.00 218.00 200.00 Z" stroke-width="1.1"></path><path d="M212.73 212.73 Q213.44 223.33 224.04 224.04 Q223.33 213.44 212.73 212.73 Z" stroke-width="1.1"></path><path d="M200.00 218.00 Q193.00 226.00 200.00 234.00 Q207.00 226.00 200.00 218.00 Z" stroke-width="1.1"></path><path d="M187.27 212.73 Q176.67 213.44 175.96 224.04 Q186.56 223.33 187.27 212.73 Z" stroke-width="1.1"></path><path d="M182.00 200.00 Q174.00 193.00 166.00 200.00 Q174.00 207.00 182.00 200.00 Z" stroke-width="1.1"></path><path d="M187.27 187.27 Q186.56 176.67 175.96 175.96 Q176.67 186.56 187.27 187.27 Z" stroke-width="1.1"></path><path d="M200.00 182.00 Q207.00 174.00 200.00 166.00 Q193.00 174.00 200.00 182.00 Z" stroke-width="1.1"></path><path d="M212.73 187.27 Q223.33 186.56 224.04 175.96 Q213.44 176.67 212.73 187.27 Z" stroke-width="1.1"></path><circle cx="200" cy="200" r="16" stroke-width="1.6"></circle><circle cx="200" cy="200" r="5" fill="#E2A739" stroke="none"></circle></g></svg>